<?xml version="1.0" encoding="UTF-8"?>
<svg version="1.1" xmlns="http://www.w3.org/2000/svg" width="3072" height="3072">
<path d="M0 0 C1.60229492 1.43017578 1.60229492 1.43017578 2.98046875 3.4453125 C3.49939697 4.18531494 4.0183252 4.92531738 4.55297852 5.68774414 C5.09237061 6.49203857 5.6317627 7.29633301 6.1875 8.125 C7.04396118 9.35754517 7.04396118 9.35754517 7.91772461 10.61499023 C9.0794141 12.28728391 10.23481318 13.96396538 11.38378906 15.64501953 C13.56223586 18.8192337 15.81051195 21.94032091 18.0625 25.0625 C21.66956747 30.1083005 25.24152708 35.17862802 28.8125 40.25 C33.53817507 46.96062605 38.32798818 53.62240697 43.14379883 60.26855469 C47.30255556 66.01529054 51.40028975 71.80278674 55.48046875 77.60546875 C59.11454566 82.7656672 62.79671401 87.8892894 66.5 93 C71.20980304 99.49975194 75.8627274 106.03631653 80.47827148 112.60327148 C83.58883761 117.02161381 86.73530342 121.41176828 89.90942383 125.78466797 C92.61694692 129.51545964 95.3111415 133.25573998 98 137 C98.54205078 137.75361816 99.08410156 138.50723633 99.64257812 139.28369141 C101.21014692 141.47328886 102.76342443 143.67229319 104.3125 145.875 C104.78695557 146.53508057 105.26141113 147.19516113 105.75024414 147.87524414 C108.12784072 151.28832487 109 152.71969141 109 157 C97.30631809 157.21513865 85.66035217 156.48392181 73.98950195 155.85449219 C68.78851978 155.57619776 63.58752485 155.32036782 58.38357544 155.10400391 C56.8376745 155.03655073 55.29209072 154.96118365 53.74703979 154.87646484 C44.98278483 154.10981115 44.98278483 154.10981115 37.04296875 157.125 C35.54946207 158.48800249 35.54946207 158.48800249 34.1875 160 C33.11439998 161.02591105 32.04017282 162.05064436 30.96484375 163.07421875 C30.45937012 163.57872559 29.95389648 164.08323242 29.43310547 164.60302734 C27.48894881 166.49816608 25.39576219 168.15161493 23.25 169.8125 C18.64165883 173.46609512 14.09886386 177.19527178 9.5625 180.9375 C8.82338379 181.54722656 8.08426758 182.15695312 7.32275391 182.78515625 C5.87513863 183.97946293 4.4275468 185.17379805 2.97998047 186.36816406 C-1.33595179 189.925216 -5.66871385 193.46167239 -10 197 C-11.83345036 198.49985696 -13.66678171 199.9998594 -15.5 201.5 C-48.5 228.5 -48.5 228.5 -51.22265625 230.7265625 C-53.1485149 232.30300376 -55.0728929 233.88125492 -56.99609375 235.4609375 C-57.96675781 236.25757813 -58.93742187 237.05421875 -59.9375 237.875 C-60.81277344 238.59429688 -61.68804688 239.31359375 -62.58984375 240.0546875 C-65 242 -65 242 -67.04768372 243.27262878 C-69.61893219 245.54761909 -69.91288448 247.24858086 -70.6472168 250.58325195 C-71.04092216 252.31758736 -71.04092216 252.31758736 -71.44258118 254.08695984 C-71.84805428 255.98717644 -71.84805428 255.98717644 -72.26171875 257.92578125 C-72.56071522 259.27285051 -72.86101345 260.61963139 -73.16252136 261.96614075 C-73.96547422 265.57299313 -74.74793503 269.18398623 -75.52489471 272.79651642 C-76.14330094 275.66461323 -76.77092838 278.53065653 -77.39841366 281.39677811 C-79.38816023 290.49134468 -81.33663841 299.59460216 -83.28067398 308.69902802 C-84.77963546 315.71283239 -86.28645888 322.72495647 -87.79143333 329.73747253 C-88.37682149 332.46551982 -88.96190762 335.19363175 -89.54695129 337.92175293 C-93.2650534 355.25576924 -97.01599291 372.58259701 -100.77684021 389.90738297 C-101.31733055 392.39725285 -101.85771436 394.88714584 -102.39807129 397.37704468 C-104.15043745 405.45152155 -105.9032517 413.52590104 -107.6564827 421.60019016 C-110.64815698 435.37801309 -113.63802802 449.15622698 -116.6276474 462.93449593 C-118.37504262 470.98762742 -120.12266644 479.04070931 -121.87027359 487.09379482 C-122.16868371 488.4688917 -122.46709349 489.84398866 -122.76550293 491.21908569 C-122.91363961 491.90171252 -123.06177629 492.58433935 -123.21440196 493.28765184 C-124.26057243 498.10854856 -125.30663467 502.92946876 -126.35266113 507.75039673 C-128.15147717 516.04069352 -129.95057702 524.33092868 -131.75 532.62109375 C-131.89912433 533.30813236 -132.04824865 533.99517096 -132.2018919 534.70302892 C-136.43063369 554.18489346 -140.66721357 573.66503773 -144.9117623 593.14346445 C-145.94262979 597.87420881 -146.97313762 602.60503139 -148.00340271 607.33590698 C-148.14641538 607.99259058 -148.28942805 608.64927418 -148.43677443 609.32585728 C-149.1483837 612.59342393 -149.85997025 615.86099552 -150.57153225 619.12857246 C-152.20810789 626.64296701 -153.8467739 634.15690181 -155.48702431 641.67049503 C-156.49769686 646.30236762 -157.50647151 650.9346521 -158.51475525 655.56704521 C-158.97734433 657.69039145 -159.44072975 659.81356439 -159.90501404 661.9365406 C-161.11612721 667.47523594 -162.30817116 673.0172805 -163.47583771 678.56529617 C-163.97952134 680.90487779 -164.51663118 683.23447888 -165.06085205 685.56491089 C-166.87465441 693.63002167 -167.37213363 699.54055737 -164.1640625 707.25 C-163.82285873 708.16307922 -163.48165497 709.07615845 -163.13011169 710.01690674 C-161.99703584 713.02608326 -160.81110271 716.01137517 -159.625 719 C-158.80482935 721.15297634 -157.98911005 723.30765285 -157.17749023 725.46386719 C-155.41795086 730.13190101 -153.6412515 734.79293312 -151.85595703 739.45117188 C-148.8222813 747.41589537 -145.92703654 755.42764024 -143.05859375 763.453125 C-142.80937164 764.15014023 -142.56014954 764.84715546 -142.30337524 765.56529236 C-141.04691389 769.08075183 -139.79222715 772.59684115 -138.53851318 776.11328125 C-132.38555917 793.36625811 -126.16763156 810.59578931 -119.87109375 827.796875 C-119.63078997 828.45439003 -119.39048618 829.11190506 -119.14290047 829.78934479 C-118.46823447 831.63445461 -117.79166001 833.47886628 -117.11499023 835.32324219 C-116.72979721 836.37388855 -116.34460419 837.42453491 -115.94773865 838.50701904 C-115.06635886 840.9507739 -115.06635886 840.9507739 -114 843 C-111.62211191 843.4591141 -109.32941482 843.78330997 -106.92684937 844.04156494 C-106.1748764 844.12981147 -105.42290344 844.21805801 -104.64814341 844.30897868 C-102.09888879 844.60581182 -99.5483137 844.88922293 -96.99755859 845.17285156 C-95.1652878 845.3834176 -93.33311117 845.59480433 -91.50102234 845.80694771 C-86.45231901 846.38916078 -81.40235824 846.95975206 -76.35213041 847.52856779 C-70.94171134 848.14001255 -65.53252818 848.76220567 -60.12319946 849.38320923 C-50.77974172 850.45440911 -41.43554666 851.51896674 -32.09082031 852.57904053 C-18.56384795 854.11362055 -5.0380605 855.65843615 8.48739862 857.20629096 C14.74097658 857.92194031 20.99459725 858.637216 27.24822998 859.35238647 C28.49454783 859.49491683 29.74086568 859.63744718 31.02495074 859.78429663 C39.94135486 860.80375857 48.85798128 861.82126148 57.77471924 862.83779907 C94.92461144 867.07318824 132.07110062 871.33731125 169.21432495 875.63078308 C173.37155469 876.11125644 177.5287927 876.59165817 181.68603516 877.07202148 C182.70201302 877.18943612 183.71799089 877.30685076 184.76475596 877.42782342 C198.82181167 879.0519562 212.88044446 880.66170348 226.94048858 882.2597512 C235.53870928 883.23730542 244.13658158 884.21791458 252.734375 885.19921875 C254.10541878 885.35558032 254.10541878 885.35558032 255.5041604 885.51510072 C278.04688092 888.08710289 300.56347271 890.78668839 323.05439758 893.77893066 C330.02560494 894.7004798 337.00123856 895.58802514 343.97684479 896.47558975 C349.01448001 897.12134021 354.04476042 897.79402661 359.06835938 898.54168701 C381.64609363 902.69640822 381.64609363 902.69640822 402.359375 895.08203125 C404.3971396 893.38229795 406.30507867 891.63061875 408.18212891 889.75564575 C411.20167142 886.83946154 414.61022816 884.46280735 418 882 C419.30397781 881.01291437 420.60628729 880.02361744 421.90625 879.03125 C427.12113884 875.12008337 432.5338898 871.50438586 437.93359375 867.85546875 C443.06532862 864.37054669 448.06776783 860.76119918 453 857 C459.49290799 852.04866775 466.1690716 847.42667874 472.93359375 842.85546875 C478.06532862 839.37054669 483.06776783 835.76119918 488 832 C494.48366705 827.05571467 501.14949423 822.43905349 507.9050293 817.87524414 C513.99061114 813.7433201 519.90562404 809.42279434 525.75 804.95703125 C526.35457031 804.49554687 526.95914063 804.0340625 527.58203125 803.55859375 C528.09999268 803.15954834 528.6179541 802.76050293 529.15161133 802.34936523 C531 801 531 801 533.97851562 799.5078125 C538.4044153 795.83434438 539.22048219 791.73411433 540.76171875 786.31640625 C541.09322433 785.21792862 541.42472992 784.11945099 541.76628113 782.98768616 C542.8645094 779.33085735 543.93169947 775.66567225 545 772 C545.76426477 769.44186395 546.53047143 766.88439144 547.29931641 764.32763672 C549.60902938 756.62797139 551.87959181 748.91699847 554.14590454 741.20446777 C555.2916014 737.30816482 556.44079093 733.41289244 557.58984375 729.51757812 C558.06131491 727.91916044 558.53278095 726.32074124 559.00424194 724.72232056 C559.2386134 723.9277306 559.47298485 723.13314064 559.71445847 722.3144722 C560.42627136 719.90068176 561.13770455 717.48677972 561.84902954 715.07284546 C565.9949473 701.00486079 570.16613161 686.94445309 574.34490967 672.88619995 C576.28962397 666.34372803 578.23294862 659.80084342 580.17578125 653.2578125 C580.46745178 652.27554215 580.46745178 652.27554215 580.76501465 651.27342796 C585.7517766 634.47768127 590.71988578 617.67641786 595.6875 600.875 C596.13772575 599.35227455 596.58795158 597.82954913 597.03817749 596.30682373 C597.48598242 594.79227707 597.93378719 593.27773035 598.3815918 591.76318359 C599.26220075 588.78482887 600.14281672 585.80647623 601.0234375 582.828125 C601.2387166 582.10001743 601.4539957 581.37190987 601.67579842 580.62173843 C605.7167718 566.95479734 609.76285458 553.28937417 613.8125 539.625 C614.12367767 538.57500824 614.43485535 537.52501648 614.75546265 536.44320679 C616.06615969 532.02068887 617.37690936 527.59818657 618.68772888 523.17570496 C622.86166318 509.09343477 627.03404081 495.01070336 631.20655346 480.92801189 C632.98877636 474.91283989 634.77110071 468.89769794 636.5534668 462.88256836 C641.36900279 446.63096624 646.18409462 430.37923294 650.99749756 414.1269989 C652.9147849 407.65337433 654.83229763 401.17981653 656.74985886 394.70627308 C658.3054356 389.45468503 659.86074273 384.20301726 661.41573715 378.95125675 C662.14630802 376.48425927 662.87724997 374.01737195 663.60821533 371.55049133 C664.52501949 368.45604088 665.43989284 365.36102989 666.35321045 362.26554871 C668.20873062 355.98378139 670.07706871 349.70817417 672.04199219 343.45947266 C672.33524384 342.51868362 672.62849548 341.57789459 672.93063354 340.6085968 C673.44662078 338.96246501 673.97175152 337.3191504 674.50906372 335.67985535 C676.09892447 330.5936642 676.2046479 327.55649019 673.94702148 322.76538086 C673.50946533 322.00620361 673.07190918 321.24702637 672.62109375 320.46484375 C672.12029297 319.58763672 671.61949219 318.71042969 671.10351562 317.80664062 C670.27883789 316.38641602 670.27883789 316.38641602 669.4375 314.9375 C668.86322266 313.93525391 668.28894531 312.93300781 667.69726562 311.90039062 C666.45452281 309.73256866 665.20880108 307.56645229 663.96044922 305.40185547 C661.97759088 301.96111473 660.00425559 298.51503023 658.03515625 295.06640625 C657.70417435 294.48674606 657.37319244 293.90708588 657.03218079 293.30986023 C656.35980075 292.13225531 655.68744262 290.95463788 655.0151062 289.77700806 C653.99413488 287.98973273 652.97197571 286.20314185 651.94946289 284.41674805 C647.73002292 277.04346478 643.54219842 269.65295058 639.375 262.25 C635.03277856 254.53851409 630.60578283 246.88172438 626.125 239.25 C619.04446898 227.18535786 612.25648197 214.96839243 605.51074219 202.71435547 C604.22627024 200.40654049 602.9089214 198.12422993 601.5703125 195.84765625 C600 193 600 193 600 191 C599.30519531 190.96261719 598.61039063 190.92523437 597.89453125 190.88671875 C587.17777124 190.19400042 576.61280432 188.59997319 566 187 C566.49020876 182.50848308 567.94632921 180.56657696 571.13330078 177.4284668 C572.01156525 176.55373215 572.88982971 175.6789975 573.79470825 174.77775574 C574.76145135 173.83478192 575.72832272 172.8919396 576.6953125 171.94921875 C577.68697184 170.96757445 578.67766969 169.98495798 579.66744995 169.00141907 C582.27672326 166.41306706 584.89731616 163.8364955 587.52093506 161.26269531 C591.70111259 157.15775175 595.8630574 153.03430906 600.02660751 148.91251564 C601.47179609 147.48479972 602.92124845 146.06153957 604.37161255 144.63908386 C605.71737869 143.31279716 605.71737869 143.31279716 607.09033203 141.9597168 C608.26162155 140.80985542 608.26162155 140.80985542 609.45657349 139.63676453 C611.47323248 137.5460987 613.37636995 135.43036483 615.27072144 133.23225403 C619.18032506 128.72941294 623.34872642 124.52516622 627.578125 120.32421875 C628.40671021 119.49709381 629.23529541 118.66996887 630.08898926 117.81777954 C631.87587673 116.03467697 633.66391783 114.25272985 635.45300293 112.47183228 C638.28910021 109.64857684 641.12207231 106.82220737 643.95410156 103.99487305 C650.47638212 97.4845746 657.00369297 90.97932735 663.53106689 84.47413635 C669.51921004 78.50623875 675.50625227 72.5372473 681.48923874 66.56417942 C684.74813779 63.31101843 688.01092437 60.06178716 691.27441406 56.81323242 C692.99038327 55.1008979 694.70621103 53.3884216 696.421875 51.67578125 C697.18987427 50.9129483 697.95787354 50.15011536 698.74914551 49.36416626 C704.89768914 43.21622203 710.6772474 36.91622525 715.81274414 29.88989258 C722.35830842 21.68669186 728.89507771 14.63255716 739.76513672 13.36474609 C748.14983416 12.65731252 756.57719175 13.10845879 764.9636879 13.56498337 C769.1471665 13.77217199 773.33319408 13.86767614 777.52026367 13.97290039 C783.50088464 14.13226803 789.47824373 14.32789403 795.45614719 14.56843472 C805.0166169 14.94911952 814.55039777 15.07253535 824.11766624 14.99980736 C828.35195285 14.96992881 832.58636045 14.96602437 836.82073689 14.95854664 C840.12774596 14.9511164 843.43366769 14.92967695 846.740448 14.88803101 C850.37667584 14.85019762 854.00835792 14.86907439 857.64453125 14.90234375 C858.70143158 14.8778717 859.75833191 14.85339966 860.84725952 14.82818604 C865.13567549 14.91250547 867.88366174 15.00127115 871.15818787 17.93081665 C872.96279242 20.21359358 874.50497461 22.50576575 876 25 C876.91375501 26.38647879 877.8288543 27.77207391 878.74609375 29.15625 C879.64776089 30.60134896 880.54470318 32.0494041 881.4375 33.5 C882.47961544 35.17110535 883.52263231 36.8416488 884.56640625 38.51171875 C885.11828613 39.39649902 885.67016602 40.2812793 886.23876953 41.19287109 C889.41514882 46.2555283 892.64775258 51.28217821 895.875 56.3125 C901.0364298 64.36516675 906.1836253 72.42656118 911.3125 80.5 C915.73446784 87.45795162 920.18428643 94.39645985 924.67260742 101.31176758 C930.25163924 109.91509914 935.76491852 118.56059368 941.2890625 127.19921875 C944.02020197 131.46993783 946.75632894 135.73732331 949.5 140 C953.53092659 146.26438116 957.54736533 152.53798686 961.5625 158.8125 C962.24594482 159.88048828 962.92938965 160.94847656 963.63354492 162.04882812 C967.15781634 167.55660291 970.68106051 173.06503245 974.203125 178.57421875 C982.88391785 192.15025842 982.88391785 192.15025842 991.625 205.6875 C996.27611443 212.85644555 1000.86752008 220.06252364 1005.45092773 227.27490234 C1014.14621286 240.95561014 1022.85556888 254.6285798 1031.67456055 268.22998047 C1032.58635547 269.63913266 1033.49420084 271.0508498 1034.39770508 272.46533203 C1036.20685602 275.29084819 1038.02315311 278.03056211 1040.05078125 280.70703125 C1044.09342041 286.20398171 1045.80737073 291.423972 1047.20703125 297.98828125 C1047.41285324 298.92353638 1047.61867523 299.8587915 1047.83073425 300.8223877 C1050.95406571 315.16719362 1053.86791073 329.55859463 1056.78588867 343.94628906 C1057.64870655 348.1993524 1058.51937343 352.45077041 1059.39178944 356.70187378 C1060.06918772 360.00907773 1060.74131215 363.31733726 1061.41196251 366.62591553 C1061.731009 368.19552262 1062.05195198 369.76474555 1062.37488747 371.33355713 C1062.82294539 373.51295306 1063.26356249 375.69373001 1063.70239258 377.875 C1063.95378494 379.10992188 1064.20517731 380.34484375 1064.46418762 381.6171875 C1065.52941054 388.34239495 1064.72570359 392.38542393 1061.44921875 398.28515625 C1060.8938166 399.32060326 1060.8938166 399.32060326 1060.32719421 400.37696838 C1059.12530078 402.61181604 1057.90656307 404.83697961 1056.6875 407.0625 C1055.86085289 408.59289166 1055.03549888 410.12398249 1054.21142578 411.65576172 C1052.57518567 414.6949773 1050.93353766 417.73116424 1049.28759766 420.76513672 C1046.26021122 426.35569254 1043.31139056 431.98614411 1040.375 437.625 C1039.50793312 439.28391721 1038.6407605 440.94277918 1037.7734375 442.6015625 C1036.89558594 444.28378906 1036.89558594 444.28378906 1036 446 C1032.24547881 446.58530559 1030.93770948 445.9599875 1027.6796875 443.8671875 C1026.40259086 442.88117136 1025.13493446 441.88285357 1023.875 440.875 C1022.44352861 439.76586761 1021.01120099 438.65783962 1019.578125 437.55078125 C1018.45567383 436.67607178 1018.45567383 436.67607178 1017.31054688 435.78369141 C1013.46233077 432.81295315 1009.54381489 429.93908544 1005.625 427.0625 C1004.82819824 426.47581543 1004.03139648 425.88913086 1003.21044922 425.28466797 C997.82836887 421.32652176 992.4210105 417.40460234 987 413.5 C974.88456052 404.77358758 962.86280474 395.92199278 950.9375 386.9375 C944.65647645 382.20694002 938.30275065 377.58496823 931.91943359 372.99365234 C922.4198857 366.15551953 913.01719866 359.18637634 903.60449219 352.22949219 C902.81461914 351.64586914 902.02474609 351.06224609 901.2109375 350.4609375 C900.42178955 349.87763672 899.6326416 349.29433594 898.81958008 348.69335938 C897.24113854 347.52987146 895.66026947 346.36966915 894.0769043 345.21289062 C890.04313339 342.26463621 886.05524538 339.27558245 882.12109375 336.1953125 C881.32453369 335.5856665 880.52797363 334.97602051 879.70727539 334.34790039 C878.19769831 333.19229093 876.70217266 332.01799028 875.22436523 330.82202148 C874.19678101 330.04580444 874.19678101 330.04580444 873.1484375 329.25390625 C872.26937744 328.56276733 872.26937744 328.56276733 871.37255859 327.85766602 C864.24816602 325.28223989 853.71793375 329.10702322 846.50390625 330.50390625 C844.56411674 330.87469939 842.62432687 331.24549071 840.68451595 331.61617184 C837.99327306 332.13130272 835.30263469 332.64955242 832.61199951 333.16784668 C827.8733361 334.08032762 823.13406104 334.98961078 818.39427185 335.89622498 C815.87539051 336.37835716 813.35687505 336.86240551 810.83876038 337.348526 C809.70675705 337.56552658 808.57475372 337.78252716 807.40844727 338.00610352 C806.40967056 338.19850113 805.41089386 338.39089874 804.3818512 338.58912659 C802 339 802 339 800 339 C799.78883545 339.89468994 799.5776709 340.78937988 799.36010742 341.71118164 C796.69777653 352.69372778 793.54437366 363.49364792 790.26293945 374.30557251 C788.9311876 378.69401643 787.60817366 383.08508302 786.28439331 387.47593689 C785.58244401 389.8039148 784.88006632 392.13176358 784.17727661 394.45948792 C780.76891514 405.75107032 777.39589178 417.05306832 774.02914429 428.3571167 C772.24956276 434.33211589 770.46853447 440.30668377 768.6875 446.28125 C768.31541916 447.52949554 767.94333832 448.77774109 767.5599823 450.06381226 C764.60649927 459.97082401 761.6477386 469.87625497 758.6875 479.78125 C758.22324023 481.3347216 757.75898141 482.88819349 757.29472351 484.44166565 C756.5856292 486.81437745 755.87653426 489.18708906 755.16743755 491.55980015 C746.32160236 521.15917435 737.49491956 550.76417237 728.6875 580.375 C719.97933653 609.65212546 711.24942934 638.92267994 702.5 668.1875 C702.22484055 669.10785034 701.94968109 670.02820068 701.66618347 670.97644043 C700.29978686 675.5467089 698.93335685 680.11696739 697.56692505 684.68722534 C697.30275913 685.57077572 697.03859322 686.4543261 696.76642227 687.36465073 C696.23913309 689.1282558 695.7118377 690.89185903 695.18453598 692.65546036 C689.76445414 710.78364235 684.35274373 728.91431121 678.94897461 747.04736328 C678.29672197 749.23600551 677.64445966 751.42464484 676.9921875 753.61328125 C676.67288773 754.6846936 676.35358795 755.75610596 676.02461243 756.85998535 C673.8432749 764.17724859 671.6570652 771.49304714 669.46855164 778.8081665 C668.0756763 783.46389015 666.6839577 788.11995934 665.29247761 792.77610016 C664.34275559 795.95370722 663.39217199 799.13105064 662.44039917 802.30804443 C661.39745593 805.78951853 660.35670325 809.27164067 659.31640625 812.75390625 C659.00893463 813.77816208 658.70146301 814.80241791 658.38467407 815.85771179 C657.82328361 817.73982743 657.27352542 819.62546809 656.73773193 821.51502991 C656 824 656 824 655.20904541 826.01023865 C652.79149069 832.7724748 655.69514879 838.69463615 658.0390625 845.15234375 C658.48249501 846.41911172 658.924145 847.68650492 659.36410522 848.95448303 C660.52398924 852.28037349 661.70978063 855.59645548 662.90075684 858.91131592 C663.86155244 861.59929262 664.80367459 864.29362462 665.74482155 866.98853207 C670.83368178 887.03560055 670.83368178 887.03560055 682.4296875 902.44921875 C683.2961792 902.9798291 684.1626709 903.51043945 685.05541992 904.05712891 C685.98588135 904.59515137 686.91634277 905.13317383 687.875 905.6875 C689.86888396 906.89648524 691.86236224 908.10613975 693.85546875 909.31640625 C694.87560059 909.92500488 695.89573242 910.53360352 696.94677734 911.16064453 C701.75309545 914.05611875 706.46589076 917.09411816 711.1875 920.125 C713.02410611 921.29526559 714.86133971 922.46454703 716.69921875 923.6328125 C717.58786621 924.19774414 718.47651367 924.76267578 719.39208984 925.34472656 C723.42359142 927.90357141 727.46137585 930.45241654 731.5 933 C741.08429281 939.04581782 750.64410607 945.12979934 760.20166016 951.21777344 C764.80023761 954.14654812 769.40016338 957.07320348 774 960 C779.53584258 963.52236094 785.07137537 967.04520379 790.60546875 970.5703125 C792.46612021 971.75524857 794.32679714 972.94014464 796.1875 974.125 C797.0954834 974.70330566 798.0034668 975.28161133 798.93896484 975.87744141 C804.18024164 979.21331235 809.43092972 982.53367797 814.68945312 985.84228516 C822.53898954 990.78207963 830.32541677 995.7917 838 1001 C837.45580988 1005.39553713 836.39239197 1008.62691409 834.26171875 1012.5 C833.69517578 1013.54027344 833.12863281 1014.58054687 832.54492188 1015.65234375 C831.93197266 1016.75707031 831.31902344 1017.86179687 830.6875 1019 C829.72511024 1020.75996659 828.76272262 1022.51993436 827.80056763 1024.2800293 C826.82512595 1026.06084378 825.84564567 1027.83937421 824.86474609 1029.6171875 C822.71008106 1033.52593831 820.57215511 1037.44360053 818.43701172 1041.36303711 C817.47256444 1043.132829 816.50672534 1044.90186308 815.53955078 1046.67016602 C812.2764425 1052.63854491 809.05134219 1058.62641776 805.83911133 1064.62231445 C800.25695161 1075.03871501 794.55672537 1085.37175999 788.70141602 1095.63696289 C783.6986102 1104.44666937 778.99350325 1113.40140552 774.37109375 1122.41552734 C773.91863281 1123.26840332 773.46617188 1124.1212793 773 1125 C772.67776459 1125.68744797 772.35552917 1126.37489594 772.02352905 1127.08317566 C768.96338567 1133.22374343 765.55388045 1136.40043798 759.7890625 1140.00390625 C758.99324265 1140.52461197 758.19742279 1141.04531769 757.37748718 1141.58180237 C754.80463712 1143.26024526 752.21516722 1144.91093672 749.625 1146.5625 C747.82947403 1147.72865183 746.03545446 1148.89712622 744.24291992 1150.06787109 C741.57891338 1151.80750439 738.91419136 1153.54584722 736.24449158 1155.2767334 C729.83760043 1159.43150039 723.54363348 1163.71009221 717.3125 1168.125 C703.2771726 1178.00000576 688.93797702 1187.42607567 674.64208984 1196.91748047 C667.23630651 1201.83443021 659.8357668 1206.75924925 652.4375 1211.6875 C651.74652222 1212.14767517 651.05554443 1212.60785034 650.34362793 1213.08197021 C643.11283181 1217.89900741 635.88999493 1222.72565126 628.72436523 1227.6394043 C627.19735028 1228.68624184 625.66707671 1229.72834738 624.13305664 1230.76489258 C620.1104738 1233.4918879 616.23659041 1236.31779261 612.46875 1239.38916016 C606.60040856 1243.55365712 602.99901751 1245.6059464 595.69148254 1244.93574524 C594.96941866 1244.87470496 594.24735477 1244.81366467 593.50341016 1244.75077468 C590.99878686 1244.52851052 588.50028952 1244.26649974 586 1244 C584.60811828 1243.86006264 584.60811828 1243.86006264 583.18811774 1243.71729827 C575.30544215 1242.92439115 567.43364777 1242.04162523 559.5612793 1241.15307617 C556.89571501 1240.85555148 554.2301132 1240.55838288 551.56446075 1240.26165104 C545.79199502 1239.61837426 540.01989854 1238.97186648 534.24803734 1238.32318878 C525.66443079 1237.35854216 517.08023958 1236.39917661 508.49591819 1235.44091471 C494.04540839 1233.82769521 479.59533704 1232.21058124 465.14550781 1230.59127808 C444.48420122 1228.27595421 423.82226707 1225.96626617 403.16015598 1223.65813382 C397.64201843 1223.04170782 392.1238865 1222.42523157 386.60575337 1221.80876603 C385.68837421 1221.70627995 384.77099504 1221.60379387 383.82581651 1221.49820215 C382.44699301 1221.3441652 382.44699301 1221.3441652 381.04031448 1221.18701641 C378.24494549 1220.87473224 375.44957526 1220.5624591 372.65420496 1220.25018662 C360.33468132 1218.87393481 348.01523368 1217.49700402 335.69582058 1216.11976295 C280.60797096 1209.96138769 225.51778686 1203.8242071 170.42578125 1197.703125 C169.49082572 1197.59924415 168.55587019 1197.4953633 167.59258267 1197.38833454 C144.59226234 1194.83284336 121.59183041 1192.27835742 98.59134322 1189.72436851 C86.09296341 1188.33653333 73.59461253 1186.94843774 61.09628296 1185.56015015 C60.22312989 1185.46316233 59.34997683 1185.36617452 58.45036458 1185.26624767 C54.08984826 1184.78189047 49.72933239 1184.29752916 45.36881673 1183.8131659 C0.58875927 1178.83800914 0.58875927 1178.83800914 -44.19175321 1173.86695081 C-46.44967568 1173.6159946 -48.70749755 1173.36413133 -50.96520871 1173.1112811 C-56.82119268 1172.45661079 -62.6785668 1171.82202231 -68.539505 1171.21316719 C-69.77500926 1171.08240935 -71.01051351 1170.95165151 -72.28345728 1170.81693131 C-74.6451632 1170.56734736 -77.00746861 1170.32335039 -79.37042379 1170.08588499 C-80.42913891 1169.97289566 -81.48785403 1169.85990633 -82.57865143 1169.74349308 C-83.50743308 1169.64784819 -84.43621472 1169.55220329 -85.39314127 1169.45366007 C-91.09121113 1168.46205023 -94.69710851 1165.82825972 -98.9375 1162.0625 C-103.53068329 1158.07576456 -108.19151328 1154.22427931 -113 1150.5 C-118.15025604 1146.49946267 -123.15544448 1142.36509304 -128.10766602 1138.12280273 C-131.97170852 1134.82887444 -135.92557453 1131.67397108 -139.9375 1128.5625 C-145.35277908 1124.35995526 -150.57196335 1119.97594576 -155.74755859 1115.48291016 C-160.32341638 1111.5306264 -165.03476087 1107.78606872 -169.81152344 1104.08081055 C-174.43933212 1100.47743397 -178.92305426 1096.72683933 -183.38256836 1092.91821289 C-187.37941036 1089.50905175 -191.44726683 1086.2058941 -195.5625 1082.94140625 C-199.03091355 1080.17890379 -202.45430343 1077.36254718 -205.8828125 1074.55078125 C-209.57910611 1071.52224429 -213.29001074 1068.51173042 -217 1065.5 C-224.2000347 1059.65381798 -231.38142644 1053.78525295 -238.5546875 1047.90625 C-244.71435047 1042.86154086 -250.8878262 1037.83411641 -257.07226562 1032.81982422 C-260.15688586 1030.3174445 -263.23687131 1027.81061054 -266.29296875 1025.2734375 C-267.72576172 1024.08621094 -267.72576172 1024.08621094 -269.1875 1022.875 C-270.00605469 1022.19179687 -270.82460938 1021.50859375 -271.66796875 1020.8046875 C-273.93433392 1018.94440388 -273.93433392 1018.94440388 -276.47314453 1017.69189453 C-279.39315211 1015.73675902 -280.26572096 1014.27287126 -281.76171875 1011.125 C-282.24189453 1010.13757812 -282.72207031 1009.15015625 -283.21679688 1008.1328125 C-283.70212891 1007.09898437 -284.18746094 1006.06515625 -284.6875 1005 C-285.64701364 1002.99869078 -286.60935589 1000.99873577 -287.57421875 999 C-288.10063965 997.90880859 -288.62706055 996.81761719 -289.16943359 995.69335938 C-291.68690315 990.55879867 -294.38617465 985.51904818 -297.06169128 980.46569824 C-300.08157091 974.75783879 -303.05843781 969.02985381 -306 963.28125 C-306.41220291 962.47582764 -306.82440582 961.67040527 -307.24909973 960.84057617 C-308.91734144 957.57845027 -310.5836335 954.31533018 -312.25 951.05224609 C-316.78492477 942.17548515 -321.34424998 933.31409862 -326 924.5 C-331.51155665 914.06571902 -336.88321027 903.56151051 -342.25 893.05224609 C-347.21094688 883.34158016 -352.2167384 873.65791883 -357.30905151 864.01544189 C-362.03247306 855.06242422 -366.64339917 846.05228101 -371.25537109 837.04150391 C-372.00784379 835.57195752 -372.76099425 834.10275798 -373.51483154 832.63391113 C-374.2546612 831.19076468 -374.99204595 829.74636199 -375.72686768 828.30065918 C-377.51785244 824.79514579 -379.35821996 821.34022067 -381.33496094 817.93554688 C-381.70797333 817.28011902 -382.08098572 816.62469116 -382.46530151 815.94940186 C-383.48174929 814.17425583 -384.52103494 812.41224107 -385.56201172 810.65136719 C-389.62212103 800.34186043 -385.71841345 787.94963607 -383.89453125 777.38671875 C-383.57005303 775.48487406 -383.24573005 773.58300288 -382.92155457 771.68110657 C-382.24254376 767.71201138 -381.55632717 763.74423549 -380.8659668 759.77709961 C-379.98356886 754.69846591 -379.12760136 749.61575431 -378.27792835 744.53155804 C-377.6180448 740.60950902 -376.94010758 736.69073824 -376.25711632 732.77265358 C-375.93364051 730.89951818 -375.61672902 729.02523661 -375.30658913 727.14984703 C-374.87151705 724.53068805 -374.41126109 721.91715216 -373.94458008 719.3034668 C-373.76115303 718.14775177 -373.76115303 718.14775177 -373.57402039 716.96868896 C-372.4081882 710.69617656 -369.63541184 707.87446623 -364.57836914 704.27758789 C-363.73910889 703.76446045 -362.89984863 703.25133301 -362.03515625 702.72265625 C-360.60465942 701.83960815 -360.60465942 701.83960815 -359.14526367 700.9387207 C-358.12795166 700.31956787 -357.11063965 699.70041504 -356.0625 699.0625 C-353.89270988 697.72480027 -351.72345045 696.3862394 -349.5546875 695.046875 C-348.45866211 694.37205078 -347.36263672 693.69722656 -346.23339844 693.00195312 C-341.35672311 689.98256792 -336.5207216 686.9007998 -331.6875 683.8125 C-329.88031607 682.6599873 -328.07302561 681.50764162 -326.265625 680.35546875 C-325.39099609 679.79778809 -324.51636719 679.24010742 -323.61523438 678.66552734 C-320.20278719 676.49229035 -316.7870622 674.32433242 -313.36669922 672.16357422 C-311.76841132 671.15127167 -310.17356873 670.13350535 -308.58251953 669.10986328 C-305.14267899 666.90880776 -301.7337045 664.81318476 -298.0703125 663.00390625 C-291.67774108 659.78874034 -291.67774108 659.78874034 -287.75537109 654.07418823 C-287.49320801 652.92677155 -287.23104492 651.77935486 -286.9609375 650.59716797 C-286.80648666 649.94788771 -286.65203583 649.29860744 -286.49290466 648.62965202 C-285.97425328 646.42408304 -285.4875537 644.21263546 -285 642 C-284.6250765 640.37729232 -284.24830179 638.75501148 -283.86987305 637.13311768 C-282.56839227 631.51516704 -281.31527256 625.88678769 -280.0625 620.2578125 C-279.58546118 618.12520263 -279.10813846 615.99265625 -278.6305542 613.86016846 C-277.61389529 609.31803548 -276.59909711 604.77549254 -275.58581543 600.23260498 C-273.97726572 593.02108307 -272.36448948 585.81051049 -270.75097656 578.60009766 C-269.09753144 571.21041777 -267.44431141 563.82068808 -265.7925415 556.43063354 C-261.19766699 535.87339551 -256.58469893 515.32026091 -251.96298218 494.76904297 C-250.74549013 489.35523772 -249.52856832 483.94130441 -248.31176758 478.52734375 C-245.23620891 464.84339814 -242.15998163 451.15960286 -239.08362865 437.4758358 C-238.65214533 435.55654841 -238.22067321 433.6372585 -237.78921223 431.71796608 C-236.70711361 426.90441283 -235.62487649 422.09089081 -234.54234314 417.2774353 C-232.42356253 407.85528254 -230.30766948 398.43249757 -228.19799805 389.00830078 C-227.38491882 385.37785884 -226.57149253 381.74749483 -225.7578125 378.1171875 C-225.55910616 377.23047993 -225.36039982 376.34377235 -225.15567207 375.43019485 C-222.4414057 363.32584981 -219.67700084 351.23402053 -216.87316704 339.15012741 C-215.77588999 334.41185298 -214.68854708 329.67128891 -213.60179996 324.93058968 C-212.59617636 320.54945097 -211.57375236 316.17270436 -210.53789902 311.79862022 C-210.06479729 309.78742677 -209.60062379 307.77442977 -209.14053345 305.76022339 C-208.5876809 303.339992 -208.02066561 300.9229329 -207.43661499 298.51004028 C-207.08139267 296.92387405 -207.08139267 296.92387405 -206.71899414 295.30566406 C-206.50618301 294.39496155 -206.29337189 293.48425903 -206.07411194 292.54595947 C-205.9544559 288.43542837 -208.12956947 286.02572154 -210.69824219 282.9987793 C-211.30829102 282.36367432 -211.91833984 281.72856934 -212.546875 281.07421875 C-213.2275 280.35943359 -213.908125 279.64464844 -214.609375 278.90820312 C-215.31578125 278.17537109 -216.0221875 277.44253906 -216.75 276.6875 C-221.40765397 271.82563919 -225.98808993 266.93188096 -230.39648438 261.84204102 C-232.67528376 259.22426676 -235.02173843 256.67613342 -237.375 254.125 C-238.31782626 253.09646226 -239.26053256 252.06781453 -240.203125 251.0390625 C-242.0153021 249.06476969 -243.83938464 247.10416552 -245.671875 245.1484375 C-246.48140625 244.27445313 -247.2909375 243.40046875 -248.125 242.5 C-249.21167969 241.33984375 -249.21167969 241.33984375 -250.3203125 240.15625 C-252.12511463 237.83938774 -252.66784156 236.88352931 -253 234 C-252.20239258 230.92016602 -252.20239258 230.92016602 -250.89453125 227.25390625 C-250.65961975 226.58400665 -250.42470825 225.91410706 -250.18267822 225.22390747 C-249.67103083 223.76743231 -249.15471237 222.31259163 -248.63430786 220.85922241 C-247.21800238 216.90104593 -245.83748586 212.9303751 -244.453125 208.9609375 C-244.02055138 207.72457802 -244.02055138 207.72457802 -243.57923889 206.46324158 C-240.86189989 198.66962171 -238.31471274 190.82613098 -235.79870605 182.96566772 C-235.0575606 180.67221518 -234.29939605 178.38505608 -233.53613281 176.09887695 C-231.14594376 168.90413817 -228.88606508 161.73519265 -227.02799988 154.38237 C-219.33604808 124.15683686 -219.33604808 124.15683686 -206.10986328 116.14086914 C-201.14800329 113.37802086 -196.00844172 111.02961466 -190.81005859 108.75244141 C-184.62187693 105.990733 -178.95493053 102.35125302 -173.1875 98.8125 C-170.95813717 97.4842313 -168.72638919 96.15995706 -166.4921875 94.83984375 C-165.4103418 94.19901855 -164.32849609 93.55819336 -163.21386719 92.89794922 C-155.14055611 88.13025548 -147.03408718 83.41916851 -138.9296875 78.70458984 C-116.47680692 65.64075549 -94.04160214 52.54480788 -71.6875 39.3125 C-63.3103674 34.35397948 -54.90914354 29.43800493 -46.49804688 24.53735352 C-38.71068021 19.99955957 -30.92790219 15.45400572 -23.15042114 10.89929199 C-21.84957224 10.13764386 -20.54852878 9.37632792 -19.24728394 8.61535645 C-17.42866366 7.55173975 -15.61072954 6.48695975 -13.79296875 5.421875 C-12.7464917 4.80924805 -11.70001465 4.19662109 -10.62182617 3.56542969 C-3.78658366 -0.5157301 -3.78658366 -0.5157301 0 0 Z " fill="#FFFFFF" transform="translate(1148,1029)"/>
<path d="M0 0 C10.63138225 8.18903768 19.27998243 17.75923029 26.25 29.25 C26.6222168 29.85875977 26.99443359 30.46751953 27.37792969 31.09472656 C41.27038965 54.29620062 48.22737312 82.36175874 48.48828125 109.33203125 C48.50297203 110.59766655 48.50297203 110.59766655 48.51795959 111.88887024 C49.06254703 171.06183628 33.65726243 230.8799132 -4.75 277.25 C-5.23114258 277.83265625 -5.71228516 278.4153125 -6.20800781 279.015625 C-28.52251175 305.87913071 -58.04437837 329.52412702 -93.75 334.25 C-119.49641957 336.10972621 -141.22642264 331.34108062 -161.75 315.25 C-162.40871094 314.755 -163.06742188 314.26 -163.74609375 313.75 C-192.15298882 290.88730779 -201.86958827 251.90199179 -206.21484375 217.578125 C-206.50963153 214.46064325 -206.66617995 211.3804967 -206.75 208.25 C-206.77046387 207.52377441 -206.79092773 206.79754883 -206.81201172 206.04931641 C-207.54712351 175.73962442 -203.08639754 146.09900504 -193.75 117.25 C-193.50056641 116.4770459 -193.25113281 115.7040918 -192.99414062 114.90771484 C-184.51422349 89.21182198 -171.74118845 64.35850715 -154.75 43.25 C-153.93273438 42.2290625 -153.11546875 41.208125 -152.2734375 40.15625 C-115.54957041 -4.87207824 -53.93240994 -37.1414014 0 0 Z " fill="#FFFFFF" transform="translate(2157.75,1553.75)"/>
<path d="M0 0 C2.4629005 2.17784257 4.81571389 4.43008415 7.15625 6.73828125 C7.91292969 7.42277344 8.66960938 8.10726562 9.44921875 8.8125 C26.15993466 24.37273633 35.49859691 47.73430423 36.53515625 70.28515625 C37.21534804 96.21610436 31.17800538 119.54477021 14.15625 139.73828125 C13.52332031 140.52847656 12.89039062 141.31867188 12.23828125 142.1328125 C-1.59668295 158.61536835 -21.04225028 168.3393978 -41.84375 172.73828125 C-42.72804688 172.93035156 -43.61234375 173.12242187 -44.5234375 173.3203125 C-70.79599714 176.62756413 -97.24806626 171.52605223 -118.69921875 155.62109375 C-122.25643597 152.81843776 -125.69471759 149.99798253 -128.84375 146.73828125 C-135.3877203 149.03751406 -140.45513099 153.50562691 -145.84375 157.73828125 C-146.4625 158.22264648 -147.08125 158.70701172 -147.71875 159.20605469 C-156.16700639 165.85309513 -164.24765212 172.76358506 -171.97192383 180.24487305 C-172.84433716 181.08272339 -172.84433716 181.08272339 -173.734375 181.9375 C-174.49282715 182.67746216 -174.49282715 182.67746216 -175.26660156 183.43237305 C-176.84375 184.73828125 -176.84375 184.73828125 -178.97558594 185.72583008 C-181.19513185 186.65343369 -181.19513185 186.65343369 -181.84375 189.73828125 C-182.50375 189.73828125 -183.16375 189.73828125 -183.84375 189.73828125 C-184.1130835 190.33503662 -184.38241699 190.93179199 -184.65991211 191.54663086 C-185.84387188 193.73850689 -186.9942162 195.09385161 -188.78515625 196.8046875 C-189.65358154 197.64761353 -189.65358154 197.64761353 -190.53955078 198.50756836 C-191.15556152 199.09932861 -191.77157227 199.69108887 -192.40625 200.30078125 C-198.35090155 206.13288476 -203.70243233 212.18020534 -208.84375 218.73828125 C-209.74887749 219.84443632 -210.65657504 220.94849182 -211.56640625 222.05078125 C-233.90087021 249.24640738 -252.74074161 280.02881531 -265.84375 312.73828125 C-266.13056641 313.44275391 -266.41738281 314.14722656 -266.71289062 314.87304688 C-274.57525258 334.38335247 -278.98658935 354.5637004 -282.02001953 375.32348633 C-284.1663385 389.44976932 -288.29153498 401.86612408 -299.6484375 411.171875 C-309.26018304 418.03007778 -320.0971188 420.85203591 -331.84375 419.73828125 C-344.39495303 417.63270591 -354.74280347 412.42248153 -362.46875 402.17578125 C-369.85923847 391.03269443 -371.62850668 378.59180406 -369.47671509 365.5062561 C-368.36410331 360.23224054 -366.83757658 355.08281413 -365.28125 349.92578125 C-364.81373205 348.32639605 -364.34727205 346.72670125 -363.88183594 345.12670898 C-362.76165537 341.30562585 -361.61049298 337.49495872 -360.44134521 333.68859863 C-359.92351786 331.99861239 -359.41523125 330.30570837 -358.90869141 328.61230469 C-345.23867162 283.38123861 -316.38581958 240.72950026 -284.390625 206.46875 C-281.99966984 203.90544071 -279.66730911 201.30008471 -277.34375 198.67578125 C-270.70236963 191.285909 -263.7332804 184.15973034 -256.16015625 177.71875 C-254.31198607 176.13861125 -252.49417695 174.53651935 -250.68359375 172.9140625 C-228.05963464 152.76726996 -183.56956637 113.73828125 -151.84375 113.73828125 C-151.98997803 113.17431641 -152.13620605 112.61035156 -152.28686523 112.02929688 C-152.95678657 109.43358423 -153.61905682 106.83597569 -154.28125 104.23828125 C-154.62639648 102.90796875 -154.62639648 102.90796875 -154.97851562 101.55078125 C-161.45637182 76.01488435 -157.75309546 49.3172875 -144.6015625 26.45703125 C-128.9815882 2.29813767 -107.48725184 -12.076556 -79.87109375 -19.0078125 C-52.16142585 -24.65886995 -22.0810723 -17.56173196 0 0 Z " fill="#FFFFFF" transform="translate(2190.84375,568.26171875)"/>
<path d="M0 0 C21.00255967 -0.1737015 41.94279139 0.28816612 62.93091333 0.99985683 C67.34857235 1.14857304 71.76641489 1.29165303 76.18423462 1.4355011 C84.79313535 1.71666724 93.40186282 2.00282638 102.01053954 2.29076093 C112.06590133 2.62687763 122.12143236 2.95779507 132.17697244 3.28852767 C150.12942251 3.87915954 168.08172134 4.47426702 186.03393555 5.07202148 C203.40232315 5.65033105 220.77080563 6.22567131 238.1394043 6.79760742 C239.74639381 6.85052524 239.74639381 6.85052524 241.38584775 6.9045121 C242.45543772 6.9397326 243.52502769 6.97495311 244.62702948 7.0112409 C246.78123767 7.0821769 248.93544583 7.15311376 251.08965397 7.22405148 C252.152374 7.25904595 253.21509404 7.29404043 254.31001771 7.33009535 C270.94275953 7.87791175 287.57541596 8.42831266 304.2080621 8.97902538 C310.20772694 9.17765038 316.20740321 9.37592564 322.207088 9.57394712 C331.72071891 9.8879656 341.23431064 10.20312362 350.74782897 10.52053612 C355.08657737 10.66527787 359.42534052 10.80952378 363.76415443 10.95228958 C380.51624458 11.50387601 397.26412922 12.05979616 414 13 C413.18536386 16.88530526 411.75066898 18.66379154 409 21.5625 C405.73878098 25.07576907 402.62354927 28.63493223 399.625 32.375 C395.94363311 36.92860712 392.07225527 41.23582516 388.08642578 45.51904297 C385.09587359 48.75176204 382.26228315 52.06687666 379.5 55.5 C375.86500611 60.01777813 372.0328971 64.27818516 368.0859375 68.51953125 C365.09558642 71.75211747 362.26213671 75.06705866 359.5 78.5 C356.30068278 82.47629426 352.97415055 86.26668298 349.5 90 C345.21364389 94.60655425 341.20247989 99.37127273 337.25390625 104.2734375 C334.07287251 108.12155111 330.70440386 111.78431482 327.328125 115.4609375 C323.19131313 119.97256119 319.19389177 124.59985491 315.21875 129.25390625 C314.1875417 130.46097313 313.15629052 131.66800337 312.125 132.875 C311.60526611 133.48359863 311.08553223 134.09219727 310.55004883 134.71923828 C307.52094405 138.25642957 304.44843697 141.74401054 301.3125 145.1875 C298.30185521 148.5008308 295.43434822 151.88941929 292.625 155.375 C288.94492991 159.92700307 285.07477116 164.23252248 281.09082031 168.51464844 C278.06015689 171.79132792 275.18260887 175.1521737 272.375 178.625 C271.26705078 179.95144531 271.26705078 179.95144531 270.13671875 181.3046875 C267.94513727 183.96961156 267.94513727 183.96961156 266.14453125 186.9453125 C263.93403957 190.11324269 262.26867664 191.91285043 259 194 C255.92595858 194.42179562 252.97933207 194.15009708 249.89916992 193.86523438 C249.01760066 193.80181602 248.1360314 193.73839767 247.22774792 193.67305756 C244.48297921 193.47036718 241.74203212 193.23656454 239 193 C237.37055712 192.87448748 235.74097243 192.7507995 234.11123657 192.62915039 C229.21304912 192.25523514 224.3196089 191.83293877 219.42578125 191.40625 C217.63749014 191.25285644 215.84917475 191.09974582 214.06083679 190.94689941 C210.35750775 190.62967165 206.65438396 190.31018449 202.95141602 189.98876953 C198.22700515 189.57872245 193.50225025 189.17281612 188.77735615 188.76837921 C184.22253861 188.37829714 179.66790708 187.98606306 175.11328125 187.59375 C174.25958765 187.52041946 173.40589405 187.44708893 172.52633095 187.37153625 C170.09467915 187.16229154 167.6631665 186.95149895 165.23168945 186.74023438 C164.52870728 186.67994553 163.8257251 186.61965668 163.10144043 186.55754089 C161.75780878 186.44016564 160.41455921 186.31831702 159.07177162 186.19165039 C157.57901331 186.05356195 156.0848141 185.93074597 154.58995628 185.81762695 C153.79027239 185.74805786 152.99058849 185.67848877 152.16667175 185.60681152 C151.43926379 185.54909325 150.71185583 185.49137497 149.9624052 185.43190765 C146.44414989 184.65757145 144.64005608 182.07477447 142.625 179.3125 C142.16714111 178.73016602 141.70928223 178.14783203 141.23754883 177.54785156 C139.80247385 175.71483934 138.40184509 173.85848815 137 172 C135.6805955 170.3091361 134.35162535 168.62611854 133.0222168 166.94311523 C132.12577311 165.8059583 131.23274866 164.66609828 130.34301758 163.52368164 C125.99382915 157.94218474 121.49265561 152.4907274 116.98339844 147.03833008 C113.31671969 142.60346698 109.68923025 138.14213487 106.109375 133.63671875 C103.32474316 130.15592895 100.50425028 126.70481217 97.6875 123.25 C93.59422803 118.22649233 89.54618008 113.17330246 85.5625 108.0625 C80.87928402 102.05709595 76.04918543 96.18149929 71.19165039 90.31665039 C67.56310874 85.92598102 63.99841283 81.49489895 60.5 77 C55.77155201 70.92572906 50.89746956 64.97975674 45.99145508 59.04833984 C42.23551796 54.50630052 38.52307722 49.93414832 34.85546875 45.3203125 C32.75732659 42.69653051 30.63072359 40.09738461 28.5 37.5 C25.07277568 33.32088463 21.68517565 29.11299309 18.31640625 24.88671875 C14.72852913 20.41548571 11.10453006 15.97360844 7.47949219 11.5324707 C0 2.35176509 0 2.35176509 0 0 Z " fill="#FFFFFF" transform="translate(1291,998)"/>
<path d="M0 0 C15.17082936 13.1040787 23.8719517 30.4322259 28.25 49.75 C28.49492188 50.82765625 28.73984375 51.9053125 28.9921875 53.015625 C34.28961811 82.4780473 29.39268788 114.04394967 16.25 140.75 C15.93659668 141.39453125 15.62319336 142.0390625 15.30029297 142.703125 C2.62129202 168.48655346 -18.69745146 191.70364951 -46.375 201.25 C-63.51730361 206.55478163 -84.23221207 205.6681605 -100.25 197.6875 C-119.69674359 186.56842891 -132.46884369 168.43455338 -138.94140625 147.17578125 C-147.93747455 109.06200397 -141.91170663 69.63580273 -121.875 36.01953125 C-118.16778544 30.31560003 -114.09530421 24.97974666 -109.75 19.75 C-108.95722656 18.7909375 -108.16445312 17.831875 -107.34765625 16.84375 C-80.2860208 -14.38458782 -34.57515616 -26.90786211 0 0 Z " fill="#FFFFFF" transform="translate(1605.75,1425.25)"/>
<path d="M0 0 C7.79735878 5.4732783 14.20898853 13.532626 16.63818359 22.87548828 C18.74863845 35.26764628 18.74174636 50.67649402 13 62 C12.55269531 62.93457031 12.10539062 63.86914062 11.64453125 64.83203125 C8.43544197 71.12115797 4.55941836 76.62606542 0 82 C-0.67933594 82.80179688 -1.35867188 83.60359375 -2.05859375 84.4296875 C-27.31997851 113.33843797 -60.45279452 124.9639448 -97.96972656 127.57885742 C-112.32330172 128.43073756 -126.71151821 128.33596224 -141.08520508 128.31567383 C-144.65173936 128.31103499 -148.2179332 128.3180102 -151.78442383 128.33618164 C-197.31371127 128.56596681 -245.34755332 126.48322298 -282 96 C-283.38251953 94.86304688 -283.38251953 94.86304688 -284.79296875 93.703125 C-292.26133477 87.25652415 -298.26885372 79.98135202 -304 72 C-304.59425781 71.18402344 -305.18851563 70.36804687 -305.80078125 69.52734375 C-309.58084358 63.66026109 -310.05377977 57.8495685 -309 51 C-306.8901567 46.54588636 -304.61810742 43.80708551 -300 42 C-291.88626841 41.1691136 -283.76746311 42.7779823 -275.77404785 44.02334595 C-236.53567555 50.09108662 -198.04955362 51.00432313 -159 43 C-158.27458008 42.85336914 -157.54916016 42.70673828 -156.80175781 42.55566406 C-138.78131058 38.76970887 -122.61369377 28.62672545 -107.58300781 18.31591797 C-76.66980703 -2.8226506 -35.01622807 -22.6865703 0 0 Z " fill="#FFFFFF" transform="translate(1526,1679)"/>
<path d="M0 0 C3.58475457 2.77856507 6.81680669 5.77297614 10 9 C10.69738281 9.68707031 11.39476562 10.37414063 12.11328125 11.08203125 C29.38986727 29.16373972 34.65328139 54.19174887 34.375 78.4375 C34.37067963 79.1567868 34.36635925 79.87607361 34.36190796 80.61715698 C34.28653423 91.33910655 33.79252714 101.5925093 31 112 C30.74259033 112.97646484 30.74259033 112.97646484 30.47998047 113.97265625 C24.58825149 135.833656 14.36898392 155.36035206 -1 172 C-1.84820313 172.91910156 -2.69640625 173.83820313 -3.5703125 174.78515625 C-17.73944083 189.50950121 -37.06273465 200.06800233 -57.69140625 201.203125 C-75.61699281 201.42018558 -91.66679672 197.31238853 -105.56640625 185.3984375 C-125.51710084 165.73595519 -132.68562513 140.00522817 -133.25 112.5625 C-132.54052463 79.63449625 -122.7914478 48.18311282 -101 23 C-100.33742188 22.19304687 -99.67484375 21.38609375 -98.9921875 20.5546875 C-74.83522966 -7.88099349 -33.11898635 -21.4960968 0 0 Z " fill="#FFFFFF" transform="translate(1313,1387)"/>
<path d="M0 0 C2.5206593 2.20173442 4.89599871 4.48501191 7.25 6.86328125 C7.95898438 7.53875 8.66796875 8.21421875 9.3984375 8.91015625 C22.06877113 21.82321657 25.71840515 39.39218189 25.60620117 56.85083008 C25.44734021 63.58133569 24.73255407 69.56059009 22.25 75.86328125 C21.83234375 77.11044922 21.83234375 77.11044922 21.40625 78.3828125 C19.05336229 84.98509654 15.50203818 90.32813904 11.25 95.86328125 C10.55777344 96.80494141 10.55777344 96.80494141 9.8515625 97.765625 C0.70237141 109.42687723 -15.12063077 118.0250359 -29.75 119.86328125 C-51.98464442 121.27740969 -70.49746376 117.87937761 -87.75 102.86328125 C-91.32535348 105.76889993 -94.68620427 108.62138243 -97.5625 112.23828125 C-98.284375 113.10453125 -99.00625 113.97078125 -99.75 114.86328125 C-100.41 114.86328125 -101.07 114.86328125 -101.75 114.86328125 C-101.99878906 115.43304687 -102.24757813 116.0028125 -102.50390625 116.58984375 C-103.9396178 119.2092297 -105.63707456 121.06549769 -107.6875 123.23828125 C-146.70122602 165.92315534 -173.44639938 218.84116641 -185.24755859 275.24121094 C-188.55084657 290.77234247 -188.55084657 290.77234247 -194.75 296.86328125 C-195.23597656 297.35054687 -195.72195313 297.8378125 -196.22265625 298.33984375 C-202.50840326 304.07244502 -210.1587205 306.20823444 -218.50390625 306.08203125 C-228.48302775 305.11015159 -235.89413596 300.62160756 -242.203125 292.97265625 C-247.81381171 285.32171983 -247.89065178 276.02414086 -246.75 266.86328125 C-245.7136348 262.71782045 -244.22416473 258.87280876 -242.58007812 254.93359375 C-241.63538392 252.57741525 -240.79045069 250.19720382 -239.953125 247.80078125 C-228.70878294 215.65158625 -212.98637825 186.24279339 -192.75 158.86328125 C-192.27030762 158.2069873 -191.79061523 157.55069336 -191.29638672 156.87451172 C-185.15619202 148.47639907 -178.85390484 140.47955349 -171.75 132.86328125 C-170.6195086 131.57641802 -169.49431014 130.28488165 -168.375 128.98828125 C-158.15484261 117.28112636 -147.59072131 105.95503354 -135.75 95.86328125 C-134.72177755 94.96063538 -133.6945145 94.05689601 -132.66796875 93.15234375 C-124.36963669 85.88388762 -115.73673102 79.25720192 -106.75 72.86328125 C-106.98976563 71.21585938 -106.98976563 71.21585938 -107.234375 69.53515625 C-109.81296772 48.74182344 -107.29629733 28.95563326 -94.5078125 11.8671875 C-92.34775598 9.41189834 -90.11162798 7.12387702 -87.75 4.86328125 C-87.16089844 4.24324219 -86.57179688 3.62320313 -85.96484375 2.984375 C-63.4927953 -19.09256051 -24.10087674 -18.72610735 0 0 Z " fill="#FFFFFF" transform="translate(1425.75,679.13671875)"/>
</svg>
